<?xml version="1.0" encoding="UTF-8" standalone="no"?><!DOCTYPE svg PUBLIC "-//W3C//DTD SVG 1.1//EN" "http://www.w3.org/Graphics/SVG/1.1/DTD/svg11.dtd"><svg width="100%" height="100%" viewBox="0 0 288 454" version="1.1" xmlns="http://www.w3.org/2000/svg" xmlns:xlink="http://www.w3.org/1999/xlink" xml:space="preserve" xmlns:serif="http://www.serif.com/" style="fill-rule:evenodd;clip-rule:evenodd;stroke-linejoin:round;stroke-miterlimit:2;"><g id="Layer-1" serif:id="Layer 1"><path d="M86.932,44.564c0.063,-0.125 0.123,-0.244 0.185,-0.367c-0.06,0.123 -0.125,0.244 -0.185,0.367" style="fill:#1b1464;fill-rule:nonzero;"/><path d="M193.744,74.804c-0.014,0.084 -0.042,0.168 -0.056,0.252c-11.561,-14.582 -29.637,-24.116 -49.797,-24.116c-18.999,-0 -36.18,8.416 -47.755,21.585c-0.042,-0.195 -0.084,-0.405 -0.126,-0.601c-2.684,-12.218 -3.97,-25.108 -2.922,-37.48c11.492,-15.434 29.973,-25.444 50.803,-25.444c22.075,-0 41.493,11.24 52.789,28.254c1.02,12.372 -0.251,25.332 -2.936,37.55" style="fill:#f15a29;fill-rule:nonzero;"/><path d="M210.66,184.631l-25.709,45.854l-39.284,70.068l-76.387,136.235l-19.096,-51.162l-42.416,-8.253l98.755,-146.637l39.298,-58.337l13.728,-20.384c11.645,-17.293 21.179,-35.956 27.932,-55.682c2.349,-6.864 4.516,-13.98 6.207,-21.277c0.014,-0.084 0.042,-0.168 0.056,-0.252c2.685,-12.218 3.956,-25.178 2.936,-37.55c0,-0 13.491,21.515 23.556,52.061c10.415,31.651 6.71,66.252 -9.576,95.316" style="fill:#d84c27;fill-rule:nonzero;"/><path d="M282,374.577l-41.688,10.117l-19.824,49.298l-74.821,-133.439l-39.144,-69.817l-27.415,-48.902c-16.3,-29.064 -19.991,-63.664 -9.576,-95.315c10.051,-30.546 23.556,-52.076 23.556,-52.076c-1.048,12.373 0.238,25.262 2.922,37.481c0.042,0.195 0.084,0.405 0.126,0.601c1.677,7.199 3.83,14.232 6.151,21.012c6.753,19.726 16.273,38.389 27.918,55.682l15.616,23.179l39.13,58.087l97.049,144.092Z" style="fill:#f15a29;fill-rule:nonzero;"/></g></svg>